<svg width="30" height="30" viewBox="0 0 30 30" fill="none" xmlns="http://www.w3.org/2000/svg">
<path d="M15 0.75C7.1403 0.75 0.75 7.1403 0.75 15C0.75 22.8597 7.1403 29.25 15 29.25C22.8597 29.25 29.25 22.8597 29.25 15C29.25 7.1403 22.8597 0.75 15 0.75ZM15 26.1597C8.85 26.1597 3.8403 21.15 3.8403 15C3.8403 8.85 8.85 3.8403 15 3.8403C21.15 3.8403 26.1597 8.85 26.1597 15C26.1597 21.15 21.15 26.1597 15 26.1597Z" fill="#DE1B1B"/>
<path d="M14.9992 17.1002C15.8395 17.1002 16.5297 16.41 16.5297 15.5697V8.51974C16.5297 7.6795 15.8395 6.98926 14.9992 6.98926C14.159 6.98926 13.4688 7.6795 13.4688 8.51974V15.5391C13.4688 16.4098 14.159 17.1001 14.9992 17.1001V17.1002Z" fill="#DE1B1B"/>
<path d="M16.8899 20.5807C16.8899 21.6236 16.0438 22.4697 14.9996 22.4697C13.9555 22.4697 13.1094 21.6236 13.1094 20.5807C13.1094 19.5365 13.9555 18.6904 14.9996 18.6904C16.0438 18.6904 16.8899 19.5365 16.8899 20.5807Z" fill="#DE1B1B"/>
</svg>
